<?xml version="1.0" standalone="no"?>
<!DOCTYPE svg PUBLIC "-//W3C//DTD SVG 20010904//EN"
 "http://www.w3.org/TR/2001/REC-SVG-20010904/DTD/svg10.dtd">
<svg version="1.0" xmlns="http://www.w3.org/2000/svg"
 width="512.000000pt" height="512.000000pt" viewBox="0 0 512.000000 512.000000"
 preserveAspectRatio="xMidYMid meet">
<metadata>
Created by potrace 1.14, written by Peter Selinger 2001-2017
</metadata>
<g transform="translate(0.000000,512.000000) scale(0.100000,-0.100000)"
fill="#000000" stroke="none">
<path d="M2368 5055 c-2 -1 -38 -5 -81 -9 -43 -4 -117 -13 -165 -21 -829 -142
-1524 -681 -1876 -1455 -55 -121 -131 -356 -160 -495 -41 -199 -51 -297 -51
-520 0 -247 12 -363 60 -571 199 -859 835 -1550 1676 -1822 143 -47 320 -85
489 -105 128 -16 419 -19 520 -6 36 5 81 11 100 13 289 38 581 133 842 273
556 298 984 799 1188 1388 47 136 84 278 100 380 6 39 13 81 15 95 21 117 27
464 12 610 -61 567 -312 1096 -710 1499 -324 328 -726 561 -1160 672 -129 33
-172 40 -357 63 -88 11 -432 20 -442 11z m1839 -2435 l0 -1199 -86 -3 c-47 -2
-625 -3 -1283 -3 -659 0 -1198 -2 -1198 -5 0 -4 6 -14 13 -24 12 -17 77 -18
1305 -18 l1292 0 0 -33 0 -33 -1690 1 -1690 0 0 34 c0 32 1 33 40 31 63 -2
101 45 39 49 -18 1 -34 5 -37 7 -4 4 -6 2325 -3 2382 1 8 476 11 1650 11
l1648 1 0 -1198z"/>
<path d="M957 3762 c-2 -4 -3 -520 -3 -1147 l1 -1140 25 0 25 0 2 365 c0 201
2 382 2 402 l1 37 308 0 308 0 1 -400 c0 -220 2 -402 5 -404 7 -7 489 -7 496
-1 3 3 -87 6 -199 7 -112 1 -217 1 -232 1 -23 1 -27 5 -25 22 l3 21 1241 0
1242 0 2 110 c1 61 2 130 1 155 0 25 0 79 0 120 0 41 0 95 0 120 0 25 -1 259
0 520 0 261 0 495 0 520 0 25 0 79 0 120 0 41 0 95 0 120 0 25 -1 138 -2 251
l-1 207 -1599 0 c-879 1 -1600 -2 -1602 -6z m1909 -164 c7 -5 10 -297 10 -995
l-1 -988 -335 0 -335 0 -1 985 c0 542 3 990 7 995 8 11 637 14 655 3z m1155
-211 c1 -31 1 -1078 0 -1100 -1 -16 -20 -17 -288 -15 l-288 3 -1 560 c0 308 1
563 3 567 2 4 132 7 288 7 l285 0 1 -22z m-2236 -70 l190 -2 2 -117 2 -118
-177 -1 c-284 -1 -393 1 -401 6 -10 6 -11 217 -1 230 5 6 48 9 102 7 51 -1
179 -3 283 -5z"/>
<path d="M2256 3552 c-3 -5 1 -9 9 -9 8 0 15 4 15 9 0 4 -4 8 -9 8 -6 0 -12
-4 -15 -8z"/>
<path d="M2290 3548 c0 -4 119 -8 265 -8 216 0 263 -2 259 -13 -3 -8 -19 -13
-39 -12 -19 0 -35 -3 -35 -7 0 -4 20 -7 45 -6 42 0 45 2 45 27 l0 27 -270 0
c-148 0 -270 -4 -270 -8z"/>
<path d="M2278 3508 c-13 -3 57 -6 155 -7 97 -1 177 2 177 7 0 9 -300 10 -332
0z"/>
<path d="M2620 3508 c0 -4 14 -8 32 -8 17 0 28 3 25 7 -10 9 -57 10 -57 1z"/>
<path d="M2690 3508 c0 -4 9 -8 20 -8 11 0 20 4 20 8 0 4 -9 8 -20 8 -11 0
-20 -4 -20 -8z"/>
<path d="M2515 3470 l-260 -6 278 -2 c154 -1 277 -6 277 -11 0 -14 -21 -18
-82 -16 -32 0 -58 -2 -58 -6 0 -4 36 -7 80 -6 75 1 80 2 80 23 0 29 -7 30
-315 24z"/>
<path d="M2258 3429 c-5 -4 -8 -15 -6 -25 3 -18 18 -19 287 -22 157 -1 282 0
279 4 -4 3 -123 7 -265 8 -142 2 -266 4 -276 5 -35 2 -5 21 34 21 21 0 39 3
39 8 0 9 -78 10 -92 1z"/>
<path d="M2360 3430 c0 -4 67 -6 150 -6 82 0 147 2 144 5 -7 8 -294 8 -294 1z"/>
<path d="M2263 3353 c-7 -3 -13 -13 -13 -23 0 -10 6 -20 13 -22 6 -3 131 -6
276 -6 165 -1 268 -5 275 -12 13 -13 24 -12 -291 -14 -144 0 -264 -4 -268 -8
-4 -4 124 -7 284 -8 l291 -1 0 28 0 28 -262 0 c-280 0 -301 1 -295 19 2 7 32
11 79 11 42 0 79 2 82 5 6 6 -153 9 -171 3z"/>
<path d="M2450 3351 c0 -4 77 -7 170 -7 94 -1 168 2 165 5 -8 7 -335 9 -335 2z"/>
<path d="M2590 3236 c0 -2 9 -6 20 -9 11 -3 18 -1 14 4 -5 9 -34 13 -34 5z"/>
<path d="M2780 3229 c0 -5 7 -9 15 -9 8 0 15 -4 15 -10 0 -12 8 -11 -310 -13
l-245 -2 -3 -22 -3 -23 264 0 c146 0 272 -3 281 -6 9 -3 16 -1 16 5 0 8 -79
11 -270 11 -211 0 -270 3 -270 13 0 10 60 12 278 12 l277 0 3 23 c2 12 0 22
-5 23 -4 0 -16 2 -25 4 -10 2 -18 -1 -18 -6z"/>
<path d="M2256 3112 c-3 -3 -6 -14 -6 -24 0 -21 -27 -19 310 -21 152 -1 247
-6 250 -12 3 -6 -58 -11 -173 -12 -98 0 -181 -4 -184 -7 -4 -3 80 -6 185 -6
l192 0 0 25 0 25 -242 1 c-134 1 -260 0 -280 -1 -36 -1 -52 13 -25 22 6 3 85
4 175 4 89 -1 162 1 162 5 0 8 -356 9 -364 1z"/>
<path d="M2630 3110 c0 -5 5 -10 10 -10 6 0 10 5 10 10 0 6 -4 10 -10 10 -5 0
-10 -4 -10 -10z"/>
<path d="M2718 3113 c7 -3 16 -2 19 1 4 3 -2 6 -13 5 -11 0 -14 -3 -6 -6z"/>
<path d="M2250 3036 c0 -2 9 -6 20 -9 11 -3 20 -1 20 4 0 5 -9 9 -20 9 -11 0
-20 -2 -20 -4z"/>
<path d="M2348 3033 c6 -2 18 -2 25 0 6 3 1 5 -13 5 -14 0 -19 -2 -12 -5z"/>
<path d="M2418 3033 c7 -3 16 -2 19 1 4 3 -2 6 -13 5 -11 0 -14 -3 -6 -6z"/>
<path d="M2262 2994 c3 -3 128 -5 277 -4 225 0 271 -2 271 -14 0 -10 -15 -13
-65 -12 -36 1 -65 -2 -65 -6 0 -4 33 -7 73 -5 66 2 72 4 75 25 l3 22 -287 0
c-158 0 -285 -2 -282 -6z"/>
<path d="M2267 2958 c-7 -5 82 -7 196 -7 115 1 206 4 202 7 -9 9 -385 8 -398
0z"/>
<path d="M2502 2914 c3 -3 74 -5 157 -5 83 0 153 -4 156 -10 8 -12 20 -11
-285 -14 -146 -2 -268 -3 -272 -4 -5 -1 -8 -12 -8 -25 0 -24 3 -25 83 -28 114
-4 511 6 462 12 -22 3 -149 5 -282 5 -188 0 -243 3 -243 13 0 9 63 12 280 12
l280 0 0 25 0 25 -167 0 c-91 0 -164 -2 -161 -6z"/>
<path d="M2278 2802 c-22 -3 -28 -9 -28 -28 l0 -24 288 0 c234 -1 284 -3 270
-13 -9 -7 -35 -12 -57 -11 -23 1 -41 -2 -41 -7 0 -4 26 -7 58 -5 51 1 57 4 60
24 2 13 -2 22 -10 23 -7 0 -131 1 -275 3 -145 1 -266 5 -269 9 -13 12 5 20 41
19 19 -1 35 0 35 2 0 6 -44 11 -72 8z"/>
<path d="M2360 2800 c0 -5 5 -10 11 -10 5 0 7 5 4 10 -3 6 -8 10 -11 10 -2 0
-4 -4 -4 -10z"/>
<path d="M2425 2800 c-3 -5 -1 -10 4 -10 6 0 11 5 11 10 0 6 -2 10 -4 10 -3 0
-8 -4 -11 -10z"/>
<path d="M2510 2800 c0 -5 5 -10 11 -10 5 0 7 5 4 10 -3 6 -8 10 -11 10 -2 0
-4 -4 -4 -10z"/>
<path d="M2540 2799 c0 -4 14 -7 30 -7 35 1 33 8 -4 12 -14 2 -26 0 -26 -5z"/>
<path d="M2610 2800 c0 -5 5 -10 11 -10 5 0 7 5 4 10 -3 6 -8 10 -11 10 -2 0
-4 -4 -4 -10z"/>
<path d="M2646 2802 c-3 -5 1 -9 9 -9 8 0 12 4 9 9 -3 4 -7 8 -9 8 -2 0 -6 -4
-9 -8z"/>
<path d="M2686 2802 c-3 -5 1 -9 9 -9 8 0 12 4 9 9 -3 4 -7 8 -9 8 -2 0 -6 -4
-9 -8z"/>
<path d="M2463 2793 c9 -2 23 -2 30 0 6 3 -1 5 -18 5 -16 0 -22 -2 -12 -5z"/>
<path d="M2266 2719 c2 -4 33 -7 69 -7 37 0 63 3 60 6 -9 9 -135 9 -129 1z"/>
<path d="M2410 2718 c0 -4 7 -8 15 -8 8 0 15 4 15 8 0 5 -7 9 -15 9 -8 0 -15
-4 -15 -9z"/>
<path d="M2450 2719 c0 -3 11 -6 25 -6 14 0 25 3 25 6 0 4 -11 7 -25 7 -14 0
-25 -3 -25 -7z"/>
<path d="M2510 2721 c0 -4 16 -8 35 -9 19 -1 35 2 35 6 0 4 -16 8 -35 9 -19 1
-35 -2 -35 -6z"/>
<path d="M2590 2718 c0 -4 7 -8 15 -8 8 0 15 4 15 8 0 5 -7 9 -15 9 -8 0 -15
-4 -15 -9z"/>
<path d="M2630 2721 c0 -4 16 -8 35 -9 19 -1 35 2 35 6 0 4 -16 8 -35 9 -19 1
-35 -2 -35 -6z"/>
<path d="M2464 2682 c4 -3 14 -7 22 -8 9 -1 13 0 10 4 -4 3 -14 7 -22 8 -9 1
-13 0 -10 -4z"/>
<path d="M2680 2680 c-13 -8 -12 -10 3 -10 9 0 17 5 17 10 0 12 -1 12 -20 0z"/>
<path d="M2720 2680 c-13 -8 -12 -10 3 -10 9 0 17 5 17 10 0 12 -1 12 -20 0z"/>
<path d="M2774 2679 c-3 -5 7 -9 21 -9 15 0 24 -4 20 -10 -4 -6 -110 -10 -285
-10 l-280 0 2 -25 c1 -13 8 -27 15 -29 9 -4 12 1 8 17 l-6 22 281 0 280 -1 0
23 c0 13 -3 23 -7 24 -5 0 -16 2 -25 4 -10 2 -20 -1 -24 -6z"/>
<path d="M2290 2602 c0 -10 57 -9 66 1 4 4 -9 7 -29 7 -20 0 -37 -4 -37 -8z"/>
<path d="M2370 2602 c0 -10 57 -9 66 1 4 4 -9 7 -29 7 -20 0 -37 -4 -37 -8z"/>
<path d="M2450 2602 c0 -10 57 -9 66 1 4 4 -9 7 -29 7 -20 0 -37 -4 -37 -8z"/>
<path d="M2530 2602 c0 -4 54 -7 120 -7 66 0 120 3 120 8 0 4 -54 7 -120 7
-66 0 -120 -3 -120 -8z"/>
<path d="M2790 2599 c0 -5 5 -7 10 -4 6 3 10 8 10 11 0 2 -4 4 -10 4 -5 0 -10
-5 -10 -11z"/>
<path d="M2815 2561 c3 -5 1 -13 -5 -16 -6 -4 -135 -7 -286 -7 l-275 0 3 -26
3 -25 208 -1 c114 -1 207 2 207 5 0 4 -89 7 -197 8 -111 1 -202 6 -207 11 -13
13 -39 12 284 12 l280 1 0 24 c0 12 -5 23 -11 23 -5 0 -8 -4 -4 -9z"/>
<path d="M2686 2491 c-3 -5 5 -8 19 -7 14 0 25 4 25 9 0 10 -38 9 -44 -2z"/>
<path d="M2746 2491 c-3 -5 5 -8 19 -7 14 0 25 4 25 9 0 10 -38 9 -44 -2z"/>
<path d="M2257 2452 c-2 -4 -3 -16 -3 -26 1 -19 11 -20 275 -20 210 -1 275 -4
279 -13 3 -10 -33 -13 -155 -14 -257 -1 -341 -4 -347 -9 -3 -3 114 -6 259 -6
l265 0 0 28 0 28 -280 0 c-180 0 -280 4 -280 10 0 12 -23 11 247 13 123 1 223
5 223 10 0 9 -478 9 -483 -1z"/>
<path d="M2788 2453 c7 -3 16 -2 19 1 4 3 -2 6 -13 5 -11 0 -14 -3 -6 -6z"/>
<path d="M2261 2336 c9 -9 89 -13 89 -4 0 4 -21 8 -47 8 -25 0 -44 -2 -42 -4z"/>
<path d="M2364 2333 c10 -10 46 -11 46 -1 0 4 -12 8 -27 8 -14 0 -23 -3 -19
-7z"/>
<path d="M2423 2333 c10 -9 167 -10 167 0 0 4 -39 7 -87 7 -47 0 -83 -3 -80
-7z"/>
<path d="M2604 2333 c10 -10 46 -11 46 -1 0 4 -12 8 -27 8 -14 0 -23 -3 -19
-7z"/>
<path d="M2663 2333 c10 -9 87 -10 87 -1 0 5 -21 8 -47 8 -25 0 -43 -3 -40 -7z"/>
<path d="M2764 2331 c3 -5 15 -7 26 -4 14 4 20 0 20 -11 0 -14 -29 -16 -281
-16 l-280 0 3 -27 3 -27 282 -1 c156 0 283 3 283 8 0 8 9 8 -300 11 -274 3
-271 3 -250 16 8 5 73 9 145 9 71 0 194 0 273 1 l142 0 0 25 c0 22 -4 25 -36
25 -19 0 -33 -4 -30 -9z"/>
<path d="M2293 2222 c-38 -3 -43 -6 -43 -28 l0 -24 133 -1 c72 0 198 -1 280
-1 112 0 147 -3 147 -13 0 -10 -42 -13 -182 -14 -99 0 -183 -3 -186 -6 -3 -3
83 -5 191 -5 l197 0 0 24 c0 13 -6 26 -12 28 -7 2 -133 3 -280 3 -214 0 -268
2 -268 13 0 10 54 12 266 12 146 -1 268 1 270 3 8 8 -425 15 -513 9z"/>
<path d="M2400 2140 l-25 -8 28 -1 c15 -1 27 4 27 9 0 6 -1 10 -2 9 -2 -1 -14
-5 -28 -9z"/>
<path d="M2268 2133 c7 -3 16 -2 19 1 4 3 -2 6 -13 5 -11 0 -14 -3 -6 -6z"/>
<path d="M2308 2133 c7 -3 16 -2 19 1 4 3 -2 6 -13 5 -11 0 -14 -3 -6 -6z"/>
<path d="M2348 2133 c7 -3 16 -2 19 1 4 3 -2 6 -13 5 -11 0 -14 -3 -6 -6z"/>
<path d="M2272 2095 c3 -4 125 -6 272 -6 151 0 268 -5 271 -10 8 -13 20 -12
-278 -14 -147 -1 -270 -5 -274 -9 -3 -3 123 -6 280 -6 l287 0 0 25 0 25 -282
0 c-155 0 -279 -2 -276 -5z"/>
<path d="M2289 2019 c-6 -3 36 -6 93 -7 349 0 428 -3 428 -12 0 -6 -70 -10
-190 -10 -104 0 -190 -3 -190 -7 0 -6 280 -9 383 -4 16 1 26 40 10 42 -31 5
-526 3 -534 -2z"/>
<path d="M2256 1983 c-9 -9 -7 -43 2 -44 33 -6 152 -6 152 0 0 4 -29 7 -65 8
-60 0 -85 6 -74 18 3 2 37 5 77 7 40 1 72 5 72 9 0 8 -156 10 -164 2z"/>
<path d="M2420 1940 c0 -3 25 -6 55 -7 30 0 55 3 55 7 0 4 -25 7 -55 7 -30 -1
-55 -4 -55 -7z"/>
<path d="M2540 1939 c0 -3 43 -6 95 -6 52 1 95 4 95 7 0 3 -43 6 -95 6 -52 0
-95 -3 -95 -7z"/>
<path d="M2750 1942 c0 -5 7 -9 15 -9 8 0 12 4 9 9 -3 4 -9 8 -15 8 -5 0 -9
-4 -9 -8z"/>
<path d="M2258 1893 c-25 -31 -3 -38 120 -38 67 0 122 3 122 7 0 5 -52 8 -115
8 -70 0 -115 4 -115 10 0 8 414 18 468 11 6 -1 12 2 12 6 0 14 -480 10 -492
-4z"/>
<path d="M2770 1896 c4 -4 16 -4 26 2 16 9 14 10 -8 9 -15 -1 -23 -6 -18 -11z"/>
<path d="M2510 1862 c0 -4 41 -7 90 -8 50 0 90 3 90 6 0 4 -40 7 -90 8 -49 0
-90 -3 -90 -6z"/>
<path d="M2700 1862 c0 -4 9 -8 20 -8 11 0 20 4 20 8 0 4 -9 8 -20 8 -11 0
-20 -4 -20 -8z"/>
<path d="M2750 1861 c0 -5 14 -7 30 -6 20 2 30 -2 30 -11 0 -12 -48 -14 -276
-14 -175 0 -273 -4 -269 -10 4 -6 112 -9 283 -7 l277 2 3 25 c3 23 -1 25 -38
27 -22 2 -40 -1 -40 -6z"/>
<path d="M2578 1783 c7 -3 16 -2 19 1 4 3 -2 6 -13 5 -11 0 -14 -3 -6 -6z"/>
<path d="M2618 1783 c7 -3 16 -2 19 1 4 3 -2 6 -13 5 -11 0 -14 -3 -6 -6z"/>
<path d="M2655 1782 c9 -9 75 -10 75 -1 0 4 -18 7 -40 7 -23 0 -38 -3 -35 -6z"/>
<path d="M2745 1781 c3 -5 19 -8 35 -6 21 3 30 0 30 -10 0 -13 -42 -15 -280
-15 l-280 0 0 -25 c0 -19 5 -25 23 -26 80 -4 490 1 495 5 3 3 -108 6 -246 6
-195 0 -252 3 -252 13 0 9 58 12 258 12 141 0 267 2 280 4 16 2 22 10 22 27 0
22 -4 24 -46 24 -25 0 -43 -4 -39 -9z"/>
<path d="M2798 1703 c7 -3 16 -2 19 1 4 3 -2 6 -13 5 -11 0 -14 -3 -6 -6z"/>
<path d="M2430 1658 c0 -5 12 -5 28 -2 39 10 41 15 4 12 -18 -1 -32 -6 -32
-10z"/>
<path d="M2510 1659 c0 -7 91 0 100 8 2 2 -19 3 -48 2 -28 -2 -52 -6 -52 -10z"/>
<path d="M2630 1660 c11 -7 60 -2 60 6 0 2 -16 3 -35 2 -20 -1 -31 -4 -25 -8z"/>
<path d="M2730 1660 c0 -5 5 -10 11 -10 5 0 7 5 4 10 -3 6 -8 10 -11 10 -2 0
-4 -4 -4 -10z"/>
<path d="M3498 3356 c0 -1 -2 -47 -3 -103 l-2 -102 114 1 114 2 -2 63 c-1 35
0 65 3 68 3 3 2 20 -1 38 l-7 32 -107 1 c-59 1 -108 1 -109 0z"/>
<path d="M3749 3331 c0 -14 -1 -60 -1 -101 l-1 -75 114 0 113 0 1 98 c0 53 -2
98 -5 99 -3 0 -53 2 -112 3 l-108 1 -1 -25z"/>
<path d="M3518 3120 l-25 -5 1 -120 1 -120 112 -1 111 -1 1 118 c1 84 -2 120
-11 125 -14 9 -151 12 -190 4z"/>
<path d="M3763 3120 c-16 -4 -18 -18 -17 -125 l0 -120 112 -1 c62 -1 113 1
113 5 6 33 3 234 -4 238 -12 7 -180 10 -204 3z"/>
<path d="M3494 2741 l1 -106 110 0 110 0 1 77 c1 43 4 84 7 91 13 34 -10 42
-122 42 l-109 1 2 -105z"/>
<path d="M3758 2839 c-9 -6 -14 -104 -9 -189 1 -13 19 -15 105 -15 57 0 108 4
112 8 12 12 11 188 -1 195 -14 9 -192 10 -207 1z"/>
<path d="M3493 2465 l1 -143 60 -4 c34 -2 85 -2 114 0 l53 3 -3 142 -3 142
-111 2 -111 2 0 -144z"/>
<path d="M3749 2602 c-3 -27 -2 -273 2 -276 4 -4 125 -8 194 -7 l30 1 0 143
-1 142 -112 2 c-61 1 -112 -1 -113 -5z"/>
<path d="M1451 3266 c-9 -11 -12 -98 -5 -126 3 -10 17 -15 43 -15 l39 -1 4 46
c6 84 1 97 -38 102 -19 2 -39 -1 -43 -6z"/>
<path d="M1604 3272 l-42 -3 2 -72 1 -71 45 1 c25 1 48 2 53 2 4 1 7 32 7 70
0 76 -2 78 -66 73z"/>
<path d="M1711 3260 c-3 -8 -5 -31 -5 -50 4 -97 -8 -87 100 -81 6 1 11 28 11
70 l0 69 -50 4 c-36 2 -51 -1 -56 -12z"/>
<path d="M1868 3272 c-10 -2 -18 -9 -19 -15 -9 -125 -5 -137 54 -129 26 4 27
6 27 72 0 62 -2 68 -22 72 -13 2 -31 2 -40 0z"/>
<path d="M1058 2223 c-3 -7 -2 -661 1 -703 1 -13 37 -15 259 -15 l257 0 3 363
2 362 -259 0 c-143 0 -261 -3 -263 -7z"/>
<path d="M2140 1472 c0 -9 58 -7 67 2 4 3 -10 6 -30 6 -20 0 -37 -4 -37 -8z"/>
<path d="M2220 1473 c0 -8 839 -7 925 0 22 2 -177 4 -442 5 -266 1 -483 -1
-483 -5z"/>
<path d="M3198 1473 c7 -3 16 -2 19 1 4 3 -2 6 -13 5 -11 0 -14 -3 -6 -6z"/>
<path d="M3238 1473 c7 -3 16 -2 19 1 4 3 -2 6 -13 5 -11 0 -14 -3 -6 -6z"/>
<path d="M3270 1476 c0 -2 7 -7 16 -10 8 -3 12 -2 9 4 -6 10 -25 14 -25 6z"/>
<path d="M3318 1473 c7 -3 16 -2 19 1 4 3 -2 6 -13 5 -11 0 -14 -3 -6 -6z"/>
<path d="M3358 1473 c7 -3 16 -2 19 1 4 3 -2 6 -13 5 -11 0 -14 -3 -6 -6z"/>
<path d="M3390 1476 c0 -2 7 -7 16 -10 8 -3 12 -2 9 4 -6 10 -25 14 -25 6z"/>
<path d="M3438 1473 c7 -3 16 -2 19 1 4 3 -2 6 -13 5 -11 0 -14 -3 -6 -6z"/>
<path d="M3478 1473 c7 -3 16 -2 19 1 4 3 -2 6 -13 5 -11 0 -14 -3 -6 -6z"/>
<path d="M3518 1473 c7 -3 16 -2 19 1 4 3 -2 6 -13 5 -11 0 -14 -3 -6 -6z"/>
<path d="M3558 1473 c7 -3 16 -2 19 1 4 3 -2 6 -13 5 -11 0 -14 -3 -6 -6z"/>
<path d="M3591 1475 c7 -6 560 -7 567 -1 3 3 -124 6 -283 6 -159 0 -286 -2
-284 -5z"/>
<path d="M1015 1403 c-8 -8 -15 -19 -15 -24 0 -10 0 -10 285 -10 107 0 229 0
271 1 l76 0 -14 22 c-15 23 -17 23 -302 25 -241 1 -289 -1 -301 -14z"/>
</g>
</svg>
