<svg id="svg" xmlns="http://www.w3.org/2000/svg" xmlns:xlink="http://www.w3.org/1999/xlink" width="400" height="400" viewBox="0, 0, 400,400"><g id="svgg"><path id="path0" d="M4.523 193.185 L 4.523 334.612 6.658 334.897 C 7.833 335.054,9.980 335.238,11.430 335.305 L 14.067 335.427 12.405 338.191 L 10.744 340.955 5.372 341.097 L 0.000 341.240 0.000 344.741 L 0.000 348.241 200.000 348.241 L 400.000 348.241 400.000 344.724 L 400.000 341.208 246.895 341.081 L 93.789 340.955 92.140 338.191 C 91.233 336.671,90.483 335.307,90.472 335.160 C 90.461 335.013,155.014 334.984,233.923 335.095 C 312.832 335.207,381.349 335.133,386.184 334.932 L 394.975 334.565 394.975 193.162 L 394.975 51.759 199.749 51.759 L 4.523 51.759 4.523 193.185 M389.447 192.965 L 389.447 329.146 239.447 329.146 L 89.447 329.146 89.447 281.156 L 89.447 233.166 53.015 233.166 L 16.583 233.166 16.583 281.156 L 16.583 329.146 13.317 329.146 L 10.050 329.146 10.050 192.965 L 10.050 56.784 199.749 56.784 L 389.447 56.784 389.447 192.965 M158.022 77.007 C 157.891 77.354,157.841 130.327,157.911 194.724 L 158.040 311.809 197.555 311.938 L 237.071 312.066 237.409 297.365 C 237.596 289.279,237.678 236.307,237.593 179.648 L 237.437 76.633 197.850 76.504 C 166.445 76.402,158.213 76.506,158.022 77.007 M232.161 85.176 L 232.161 88.442 197.739 88.442 C 167.476 88.442,163.317 88.351,163.317 87.688 C 163.317 87.026,167.365 86.935,196.734 86.935 L 230.151 86.935 230.151 85.427 L 230.151 83.920 196.734 83.920 C 163.652 83.920,163.317 83.910,163.317 82.915 C 163.317 81.919,163.652 81.910,197.739 81.910 L 232.161 81.910 232.161 85.176 M232.161 94.975 L 232.161 97.990 199.539 97.990 C 165.052 97.990,165.327 97.976,165.327 99.721 L 165.327 100.843 180.484 101.175 C 188.820 101.358,203.858 101.508,213.901 101.508 C 229.797 101.508,232.161 101.605,232.161 102.261 C 232.161 102.924,228.001 103.015,197.739 103.015 L 163.317 103.015 163.317 99.749 L 163.317 96.482 195.939 96.482 C 230.645 96.482,230.151 96.509,230.151 94.670 L 230.151 93.467 196.734 93.467 C 167.365 93.467,163.317 93.376,163.317 92.714 C 163.317 92.051,167.476 91.960,197.739 91.960 L 232.161 91.960 232.161 94.975 M322.042 99.874 L 305.139 100.013 304.838 101.137 C 304.443 102.610,304.444 231.567,304.839 233.040 L 305.142 234.171 339.003 234.171 L 372.864 234.171 372.864 167.164 L 372.864 100.157 365.247 99.827 C 361.057 99.646,353.425 99.551,348.287 99.616 C 343.149 99.681,331.338 99.798,322.042 99.874 M337.186 117.839 L 337.186 130.151 323.618 130.151 L 310.050 130.151 310.050 117.839 L 310.050 105.528 323.618 105.528 L 337.186 105.528 337.186 117.839 M367.337 117.839 L 367.337 130.151 353.769 130.151 L 340.201 130.151 340.201 117.839 L 340.201 105.528 353.769 105.528 L 367.337 105.528 367.337 117.839 M232.161 106.784 C 232.161 107.446,228.109 107.538,198.710 107.538 L 165.260 107.538 165.419 108.920 L 165.578 110.302 198.869 110.431 L 232.161 110.560 232.161 113.823 L 232.161 117.085 197.739 117.085 C 163.652 117.085,163.317 117.076,163.317 116.080 C 163.317 115.085,163.652 115.075,196.767 115.075 L 230.218 115.075 230.059 113.693 L 229.899 112.312 196.608 112.182 L 163.317 112.053 163.317 109.042 L 163.317 106.030 197.739 106.030 C 228.001 106.030,232.161 106.121,232.161 106.784 M62.127 111.177 C 61.731 112.656,61.731 136.088,62.127 137.566 L 62.431 138.700 96.668 138.571 L 130.905 138.442 130.905 124.372 L 130.905 110.302 96.668 110.172 L 62.431 110.043 62.127 111.177 M78.392 124.372 L 78.392 133.166 73.116 133.166 L 67.839 133.166 67.839 124.372 L 67.839 115.578 73.116 115.578 L 78.392 115.578 78.392 124.372 M94.975 124.372 L 94.975 133.166 88.442 133.166 L 81.910 133.166 81.910 124.372 L 81.910 115.578 88.442 115.578 L 94.975 115.578 94.975 124.372 M112.060 124.372 L 112.060 133.166 105.528 133.166 L 98.995 133.166 98.995 124.372 L 98.995 115.578 105.528 115.578 L 112.060 115.578 112.060 124.372 M125.628 124.372 L 125.628 133.166 120.603 133.166 L 115.578 133.166 115.578 124.372 L 115.578 115.578 120.603 115.578 L 125.628 115.578 125.628 124.372 M232.161 123.116 L 232.161 126.131 198.710 126.131 L 165.260 126.131 165.419 127.513 L 165.578 128.894 198.869 129.024 C 227.998 129.137,232.161 129.247,232.161 129.903 C 232.161 130.561,227.928 130.653,197.739 130.653 L 163.317 130.653 163.317 127.638 L 163.317 124.623 193.645 124.623 C 227.991 124.623,230.151 124.519,230.151 122.861 C 230.151 121.174,228.755 121.106,194.402 121.106 C 174.013 121.106,163.317 120.933,163.317 120.603 C 163.317 120.273,175.126 120.101,197.739 120.101 L 232.161 120.101 232.161 123.116 M337.186 148.241 L 337.186 163.317 323.618 163.317 L 310.050 163.317 310.050 148.241 L 310.050 133.166 323.618 133.166 L 337.186 133.166 337.186 148.241 M367.337 148.241 L 367.337 163.317 353.769 163.317 L 340.201 163.317 340.201 148.241 L 340.201 133.166 353.769 133.166 L 367.337 133.166 367.337 148.241 M232.161 134.670 C 232.161 134.994,220.482 135.214,198.869 135.298 L 165.578 135.427 165.419 136.809 L 165.260 138.191 198.710 138.191 L 232.161 138.191 232.161 141.206 L 232.161 144.221 204.146 144.223 C 188.737 144.224,173.247 144.372,169.724 144.552 C 163.977 144.845,163.317 144.793,163.317 144.051 C 163.317 143.292,166.081 143.213,196.608 143.094 L 229.899 142.965 230.059 141.583 L 230.218 140.201 196.767 140.201 L 163.317 140.201 163.317 137.186 L 163.317 134.171 197.739 134.171 C 220.187 134.171,232.161 134.344,232.161 134.670 M232.161 150.754 L 232.161 153.769 197.739 153.769 C 167.476 153.769,163.317 153.678,163.317 153.015 C 163.317 152.353,167.368 152.261,196.767 152.261 L 230.218 152.261 230.059 150.879 L 229.899 149.497 196.608 149.368 C 167.479 149.255,163.317 149.145,163.317 148.489 C 163.317 147.831,167.549 147.739,197.739 147.739 L 232.161 147.739 232.161 150.754 M232.161 160.298 L 232.161 163.309 198.869 163.439 L 165.578 163.568 165.578 164.824 L 165.578 166.080 198.869 166.210 C 231.743 166.337,232.161 166.351,232.161 167.340 C 232.161 168.331,231.785 168.342,197.739 168.342 L 163.317 168.342 163.317 165.075 L 163.317 161.809 195.939 161.809 C 230.424 161.809,230.151 161.823,230.151 160.078 L 230.151 158.957 210.930 158.625 C 200.358 158.442,185.320 158.293,177.513 158.292 C 168.384 158.292,163.317 158.112,163.317 157.789 C 163.317 157.459,175.126 157.286,197.739 157.286 L 232.161 157.286 232.161 160.298 M337.186 178.894 L 337.186 191.457 323.618 191.457 L 310.050 191.457 310.050 178.894 L 310.050 166.332 323.618 166.332 L 337.186 166.332 337.186 178.894 M367.337 178.894 L 367.337 191.457 353.769 191.457 L 340.201 191.457 340.201 178.894 L 340.201 166.332 353.769 166.332 L 367.337 166.332 367.337 178.894 M232.161 171.859 C 232.161 172.189,220.952 172.362,199.539 172.362 C 165.051 172.362,165.327 172.348,165.327 174.094 C 165.327 175.465,175.911 175.876,211.181 175.878 L 232.161 175.879 232.161 178.894 L 232.161 181.910 197.739 181.910 C 167.549 181.910,163.317 181.817,163.317 181.159 C 163.317 180.503,167.479 180.393,196.608 180.280 L 229.899 180.151 229.899 178.894 L 229.899 177.638 196.608 177.509 L 163.317 177.380 163.317 174.368 L 163.317 171.357 197.739 171.357 C 220.352 171.357,232.161 171.529,232.161 171.859 M232.161 188.442 L 232.161 191.457 198.710 191.457 L 165.260 191.457 165.419 192.839 L 165.578 194.221 198.869 194.350 C 227.998 194.463,232.161 194.573,232.161 195.230 C 232.161 195.888,227.928 195.980,197.739 195.980 L 163.317 195.980 163.317 192.717 L 163.317 189.454 196.608 189.325 L 229.899 189.196 229.899 187.940 L 229.899 186.683 196.608 186.554 C 174.995 186.470,163.317 186.250,163.317 185.926 C 163.317 185.601,175.291 185.427,197.739 185.427 L 232.161 185.427 232.161 188.442 M337.186 211.558 L 337.186 228.643 323.618 228.643 L 310.050 228.643 310.050 211.558 L 310.050 194.472 323.618 194.472 L 337.186 194.472 337.186 211.558 M367.337 211.558 L 367.337 228.643 353.769 228.643 L 340.201 228.643 340.201 211.558 L 340.201 194.472 353.769 194.472 L 367.337 194.472 367.337 211.558 M232.161 201.759 L 232.161 204.523 198.710 204.523 L 165.260 204.523 165.419 205.905 L 165.578 207.286 198.869 207.416 C 227.998 207.529,232.161 207.639,232.161 208.295 C 232.161 208.953,227.928 209.045,197.739 209.045 L 163.317 209.045 163.317 205.782 L 163.317 202.520 196.608 202.391 L 229.899 202.261 229.899 201.005 L 229.899 199.749 196.482 199.492 L 163.065 199.235 197.613 199.115 L 232.161 198.995 232.161 201.759 M232.161 212.810 C 232.161 213.467,227.998 213.577,198.869 213.690 L 165.578 213.819 165.419 215.201 L 165.260 216.583 198.710 216.583 L 232.161 216.583 232.161 219.849 L 232.161 223.116 197.739 223.116 C 167.549 223.116,163.317 223.023,163.317 222.365 C 163.317 221.709,167.479 221.599,196.608 221.486 L 229.899 221.357 230.051 220.054 L 230.202 218.751 223.313 218.421 C 219.524 218.239,204.475 218.090,189.870 218.090 L 163.317 218.090 163.317 215.075 L 163.317 212.060 197.739 212.060 C 227.928 212.060,232.161 212.153,232.161 212.810 M232.161 229.146 L 232.161 232.161 199.539 232.161 C 164.833 232.161,165.327 232.135,165.327 233.973 L 165.327 235.176 198.744 235.176 C 231.826 235.176,232.161 235.186,232.161 236.181 C 232.161 237.176,231.826 237.186,197.739 237.186 L 163.317 237.186 163.317 233.923 L 163.317 230.660 196.608 230.531 L 229.899 230.402 229.899 229.146 L 229.899 227.889 196.608 227.760 C 167.479 227.647,163.317 227.537,163.317 226.881 C 163.317 226.223,167.549 226.131,197.739 226.131 L 232.161 226.131 232.161 229.146 M83.920 281.910 L 83.920 325.126 53.015 325.126 L 22.111 325.126 22.111 281.910 L 22.111 238.693 53.015 238.693 L 83.920 238.693 83.920 281.910 M232.161 240.955 C 232.161 241.617,228.109 241.709,198.710 241.709 L 165.260 241.709 165.419 243.090 L 165.578 244.472 198.869 244.602 L 232.161 244.731 232.161 247.742 L 232.161 250.754 199.623 250.759 C 181.727 250.762,166.237 250.905,165.201 251.076 C 163.666 251.330,163.317 251.236,163.317 250.568 C 163.317 249.821,165.577 249.749,188.819 249.747 C 202.845 249.746,217.895 249.597,222.262 249.416 L 230.202 249.087 230.051 247.785 L 229.899 246.482 196.608 246.353 L 163.317 246.224 163.317 243.212 L 163.317 240.201 197.739 240.201 C 228.001 240.201,232.161 240.292,232.161 240.955 M232.161 257.286 L 232.161 260.302 197.739 260.302 C 167.549 260.302,163.317 260.209,163.317 259.551 C 163.317 258.895,167.479 258.785,196.608 258.672 L 229.899 258.543 229.899 257.286 L 229.899 256.030 196.608 255.901 C 167.479 255.788,163.317 255.678,163.317 255.022 C 163.317 254.364,167.549 254.271,197.739 254.271 L 232.161 254.271 232.161 257.286 M232.161 266.332 L 232.161 269.347 201.382 269.351 C 166.973 269.356,165.327 269.436,165.327 271.106 C 165.327 272.775,166.973 272.855,201.382 272.860 C 228.404 272.864,232.161 272.956,232.161 273.618 C 232.161 274.281,228.001 274.372,197.739 274.372 L 163.317 274.372 163.317 271.109 L 163.317 267.846 196.608 267.717 L 229.899 267.588 229.899 266.332 L 229.899 265.075 196.608 264.946 C 167.479 264.833,163.317 264.723,163.317 264.067 C 163.317 263.409,167.549 263.317,197.739 263.317 L 232.161 263.317 232.161 266.332 M232.161 278.141 C 232.161 278.803,228.109 278.894,198.710 278.894 L 165.260 278.894 165.419 280.276 L 165.578 281.658 198.869 281.788 L 232.161 281.917 232.161 285.179 L 232.161 288.442 197.739 288.442 C 163.693 288.442,163.317 288.431,163.317 287.441 C 163.317 286.452,163.735 286.438,196.608 286.310 L 229.899 286.181 229.899 284.925 L 229.899 283.668 196.608 283.539 L 163.317 283.410 163.317 280.398 L 163.317 277.387 197.739 277.387 C 228.001 277.387,232.161 277.478,232.161 278.141 M232.161 294.469 L 232.161 297.480 198.869 297.609 L 165.578 297.739 165.419 299.121 L 165.260 300.503 198.710 300.503 C 228.109 300.503,232.161 300.594,232.161 301.256 C 232.161 301.919,228.001 302.010,197.739 302.010 L 163.317 302.010 163.317 298.999 L 163.317 295.987 196.608 295.858 L 229.899 295.729 230.051 294.426 L 230.202 293.124 222.559 292.793 C 218.355 292.611,203.306 292.462,189.116 292.462 C 172.251 292.462,163.317 292.288,163.317 291.960 C 163.317 291.630,175.126 291.457,197.739 291.457 L 232.161 291.457 232.161 294.469 M232.161 306.030 C 232.161 306.360,220.352 306.533,197.739 306.533 C 175.126 306.533,163.317 306.360,163.317 306.030 C 163.317 305.700,175.126 305.528,197.739 305.528 C 220.352 305.528,232.161 305.700,232.161 306.030 M108.920 322.487 L 94.975 322.629 94.975 325.050 L 94.975 327.472 158.375 327.806 C 239.271 328.233,377.645 328.235,384.069 327.810 L 388.992 327.484 388.843 324.923 L 388.693 322.362 255.779 322.353 C 182.676 322.348,116.589 322.408,108.920 322.487 M88.297 337.776 C 89.185 339.248,89.919 340.622,89.930 340.829 C 89.941 341.036,72.990 341.206,52.261 341.206 C 31.533 341.206,14.573 341.106,14.573 340.983 C 14.573 340.769,16.086 338.007,17.342 335.930 C 17.940 334.939,18.439 334.926,52.316 335.012 L 86.683 335.099 88.297 337.776 " stroke="none" fill="#000000" fill-rule="evenodd"></path></g></svg>